<svg xmlns="http://www.w3.org/2000/svg" xmlns:xlink="http://www.w3.org/1999/xlink" viewBox="0 0 257.59 117.22"><defs><style>.cls-1{fill:url(#linear-gradient);}.cls-2,.cls-3{fill:#6fb7fd;}.cls-3{fill-rule:evenodd;}</style><linearGradient id="linear-gradient" y1="58.61" x2="101.49" y2="58.61" gradientUnits="userSpaceOnUse"><stop offset="0.29" stop-color="#5dcefd"/><stop offset="0.74" stop-color="#7fbffe"/><stop offset="1" stop-color="#6badfd"/></linearGradient></defs><g id="图层_2" data-name="图层 2"><g id="图层_1-2" data-name="图层 1"><polygon class="cls-1" points="68.86 77.5 33.79 97.57 32.75 96.97 17.07 87.91 17.07 87.65 17.07 38.98 33.99 48.8 33.99 77.96 60.46 62.8 68.86 58 77.25 62.8 101.49 76.68 101.49 29.3 50.74 0 0 29.3 0 87.91 50.74 117.22 94.3 92.06 68.86 77.5"/><path class="cls-2" d="M115.14,62.05c.1-2.06.15-3.7.15-4.9,0-.34,0-.82,0-1.4,2.1,0,3.86,0,5.29,0,2,0,3.68,0,5.16,0,0,.54-.09,1-.11,1.35l-.15,3.24c0,.48,0,1.06,0,1.71-1.72,0-3.38,0-5,0s-3.41,0-5.32,0ZM113.49,92c.24-2.12.43-3.88.55-5.25s.23-3.12.35-5.27.21-4.49.3-7.08.16-5.6.2-9c2.27,0,4.07,0,5.42,0s3,0,5.33,0c-.29,3.28-.51,6.16-.64,8.65s-.21,5.12-.25,7.9c-.06,4.94-.1,8.3-.1,10.07-2.07,0-3.85-.06-5.35-.06S115.89,92,113.49,92Z"/><path class="cls-2" d="M130,90.81c-.07-.76-.15-1.56-.21-2.41s-.18-2-.34-3.48L129.22,83a41,41,0,0,0,4.36,1.48A13.28,13.28,0,0,0,137,85a7.84,7.84,0,0,0,2.07-.23,2.27,2.27,0,0,0,1.16-.69,1.4,1.4,0,0,0,.36-.91,1.31,1.31,0,0,0-.28-.81A5.05,5.05,0,0,0,139,81.25c-1.42-1-2.68-2-3.77-2.85a15.66,15.66,0,0,1-2.45-2.27A7.58,7.58,0,0,1,131.55,74a6.9,6.9,0,0,1-.42-2.38,7.26,7.26,0,0,1,1.23-4A7.1,7.1,0,0,1,136,64.86,18,18,0,0,1,141.9,64a59.2,59.2,0,0,1,9.25.94l.42,7.33A16.53,16.53,0,0,0,145.49,71a7.7,7.7,0,0,0-3,.42,1.36,1.36,0,0,0-.93,1.27,1.46,1.46,0,0,0,.11.55,1.73,1.73,0,0,0,.38.54,4.46,4.46,0,0,0,.67.59l2,1.4c1,.73,1.87,1.32,2.45,1.8a13,13,0,0,1,2.24,2.12,7.59,7.59,0,0,1,1.17,2.09,6.94,6.94,0,0,1-.5,5.74,7.21,7.21,0,0,1-2.71,2.59,13,13,0,0,1-3.92,1.45,24,24,0,0,1-4.36.4,35.53,35.53,0,0,1-3.8-.26C133.76,91.55,132,91.25,130,90.81Z"/><path class="cls-2" d="M182.4,83.43c-.22,1-.66,3.57-1.3,7.57-2,.4-3.71.66-5.08.79a41.29,41.29,0,0,1-4.17.2,36.18,36.18,0,0,1-5.72-.43A13.28,13.28,0,0,1,161.64,90a11,11,0,0,1-3.17-2.72,11.5,11.5,0,0,1-1.94-3.88,16.22,16.22,0,0,1-.67-4.61,17,17,0,0,1,1.33-6.53,13,13,0,0,1,3.43-5,12.35,12.35,0,0,1,4.83-2.55,20.41,20.41,0,0,1,5.61-.76,22.7,22.7,0,0,1,5.67.69,10.46,10.46,0,0,1,4.58,2.41A9.9,9.9,0,0,1,184,71a13.49,13.49,0,0,1,.8,4.68,19,19,0,0,1-.34,3.31l-18.28,0c0,.28,0,.53,0,.76a4.62,4.62,0,0,0,2,4.14A8.75,8.75,0,0,0,173,85.2a22.06,22.06,0,0,0,3.93-.4,54.5,54.5,0,0,0,5.43-1.37Zm-16-8.44H175q0-.43,0-.75a5.27,5.27,0,0,0-.48-2.32,3,3,0,0,0-1.39-1.41,4.59,4.59,0,0,0-2-.44,4.7,4.7,0,0,0-1.49.24,3.82,3.82,0,0,0-1.32.74,4.45,4.45,0,0,0-1,1.1,5.37,5.37,0,0,0-.58,1.22A15.86,15.86,0,0,0,166.36,75Z"/><path class="cls-2" d="M188.14,92c.07-.82.13-1.9.17-3.25s.1-2.73.17-4.13q2.72-2.22,5-4.3,3.66-3.39,6.51-6.37c1.51-1.58,2.77-3,3.81-4.36a8.26,8.26,0,0,0,1.17-2,3.05,3.05,0,0,0,.21-1.12,2.53,2.53,0,0,0-.34-1.31,2.66,2.66,0,0,0-1.07-1,7.3,7.3,0,0,0-1.77-.63,11.34,11.34,0,0,0-2.37-.23,26.23,26.23,0,0,0-3.85.31q-2,.33-5.52,1.2l.68-3.72c.16-.75.38-2.18.67-4.3a77.73,77.73,0,0,1,12.87-1.15,27,27,0,0,1,5.24.5,14,14,0,0,1,4.48,1.68,8.56,8.56,0,0,1,3,2.76,6.29,6.29,0,0,1,1,3.4,10,10,0,0,1-.28,2.37,13.51,13.51,0,0,1-1.07,2.64,24,24,0,0,1-2.46,3.7,71.6,71.6,0,0,1-5,5.66q-2.72,2.76-6.52,6.21l2.86,0,4,0c2,0,3.4-.07,4.19-.11s1.75-.11,2.89-.23c-.05.84-.13,1.88-.25,3.12s-.22,2.79-.34,4.6q-6.5-.06-13.59-.06Q194.07,91.93,188.14,92Z"/><path class="cls-3" d="M243.93,82.18c-.09.75-.31,2.15-.68,4.17l-.73,4.55A37.21,37.21,0,0,1,233.78,92a21.4,21.4,0,0,1-5.43-.62,12.61,12.61,0,0,1-4.95-2.63,11.39,11.39,0,0,1-3.28-4.59,18.76,18.76,0,0,1-1.22-6.93,19.82,19.82,0,0,1,1.19-6.8A13.27,13.27,0,0,1,223.62,65a11.92,11.92,0,0,1,5.17-2.84,25.28,25.28,0,0,1,6.3-.73c1.12,0,2.26,0,3.4.15v6.08h6l.07,1,.17,2.53a22.38,22.38,0,0,0-7.19-1.42,8.67,8.67,0,0,0-3.95.86,5.67,5.67,0,0,0-2.5,2.51,8.47,8.47,0,0,0-.81,3.8,8.16,8.16,0,0,0,.73,3.67,4.59,4.59,0,0,0,2.31,2.22,8.15,8.15,0,0,0,3.51.74,17.28,17.28,0,0,0,2.28-.19c.88-.14,1.65-.28,2.31-.45a21.93,21.93,0,0,0,2.48-.8Zm-3.68-22.4v6.69h6.69V59.78Zm14.52-.2h2.82v2.83h-2.82V59.58Zm-5.63,3.6h4.25v4.25h-4.25V63.18Zm-1-8h5.07v5.07H248.1Z"/></g></g></svg>